<svg width="16" height="16" viewBox="0 0 16 16" fill="none" xmlns="http://www.w3.org/2000/svg">
<path d="M4.654 3C5.115 3 5.541 3.035 5.932 3.14C6.322 3.21 6.643 3.356 6.928 3.531C7.213 3.706 7.425 3.957 7.569 4.278C7.709 4.598 7.785 4.989 7.785 5.415C7.785 5.911 7.679 6.337 7.429 6.657C7.214 6.977 6.863 7.263 6.432 7.474C7.038 7.65 7.499 7.97 7.78 8.396C8.061 8.822 8.241 9.353 8.241 9.959C8.241 10.455 8.136 10.881 7.956 11.237C7.77709 11.5958 7.50752 11.9015 7.174 12.124C6.854 12.339 6.463 12.514 6.037 12.62C5.61976 12.7305 5.19058 12.7896 4.759 12.796L0 12.803V3H4.654ZM4.369 6.978C4.759 6.978 5.079 6.873 5.326 6.693C5.572 6.513 5.681 6.196 5.681 5.806C5.681 5.59 5.646 5.38 5.576 5.239C5.49959 5.09654 5.38979 4.97473 5.256 4.884C5.11114 4.80445 4.95602 4.74523 4.795 4.708C4.619 4.673 4.439 4.673 4.228 4.673H2.17V6.983C2.17 6.978 4.369 6.978 4.369 6.978ZM4.474 11.171C4.689 11.171 4.9 11.136 5.08 11.101C5.256 11.066 5.436 10.995 5.576 10.885C5.716 10.775 5.826 10.67 5.932 10.495C6.002 10.319 6.072 10.104 6.072 9.854C6.072 9.358 5.932 9.002 5.646 8.752C5.361 8.537 4.97 8.432 4.509 8.432H2.17V11.166H4.475L4.474 11.171ZM11.332 11.136C11.6173 11.4207 12.0433 11.5627 12.61 11.562C13 11.562 13.356 11.456 13.642 11.276C13.926 11.0627 14.1027 10.8493 14.172 10.636H15.912C15.626 11.487 15.2 12.093 14.634 12.484C14.068 12.839 13.391 13.05 12.574 13.05C12.0515 13.0532 11.5332 12.9564 11.047 12.765C10.6087 12.6033 10.2178 12.3344 9.91 11.983C9.58081 11.6561 9.33641 11.2538 9.198 10.811C9.023 10.35 8.948 9.854 8.948 9.283C8.948 8.752 9.018 8.251 9.198 7.79C9.378 7.33 9.624 6.938 9.945 6.583C10.265 6.263 10.656 5.977 11.082 5.801C11.5569 5.61145 12.0637 5.5147 12.575 5.516C13.181 5.516 13.712 5.621 14.173 5.871C14.633 6.121 14.99 6.403 15.275 6.829C15.56 7.219 15.771 7.68 15.916 8.177C15.986 8.673 16.021 9.173 15.986 9.74H10.836C10.836 10.32 11.046 10.85 11.332 11.136ZM13.572 7.404C13.322 7.154 12.93 7.013 12.469 7.013C12.149 7.013 11.903 7.083 11.688 7.189C11.473 7.295 11.332 7.439 11.192 7.579C11.0614 7.71636 10.9745 7.88929 10.942 8.076C10.906 8.251 10.872 8.396 10.872 8.536H14.068C13.998 8.01 13.819 7.654 13.572 7.404ZM10.445 3.676H14.423V4.633H10.445V3.676Z" fill="#505050"/>
</svg>
